<svg xmlns="http://www.w3.org/2000/svg" width="47.7" height="1655.55" viewBox="0 0 47.7 1655.55"><defs><style>.cls-1{fill:#fff;}</style></defs><g id="Layer_2" data-name="Layer 2"><g id="Layer_1-2" data-name="Layer 1"><path class="cls-1" d="M36.86,1.45H20.62c-5.7,0-9.07,3.17-9.07,8.78a8.84,8.84,0,0,0,4.34,7.7l-3.7.34v3.66H36.86v-4.2H25.59a16.61,16.61,0,0,1-6.33-1.07,6.45,6.45,0,0,1-4-5.56c0-3.8,2.29-5.41,5.9-5.41H36.86ZM24.52,34.9c2.68,0,5.7.68,7.61,2.78a6.87,6.87,0,0,1,0,9.16c-1.91,2.1-5,2.78-7.66,2.78s-5.65-.68-7.56-2.78a6.87,6.87,0,0,1,0-9.16c1.91-2.1,4.93-2.78,7.61-2.78m-.05-4.25a13.33,13.33,0,0,0-9.94,3.86,11.1,11.1,0,0,0-3,7.7,11.35,11.35,0,0,0,3,7.8,13.47,13.47,0,0,0,10,3.85,13.47,13.47,0,0,0,10-3.85,11.35,11.35,0,0,0,3-7.8,11.1,11.1,0,0,0-3-7.7,13.55,13.55,0,0,0-10-3.86M36.86,60.1H33.3v9H12.19V81.21H15.7V73.27H33.3v8.92h3.56ZM1.66,68.44v5.9H7.51v-5.9Z"/><rect class="cls-1" x="42.9" width="3.14" height="237.55"/><rect class="cls-1" y="1652.08" width="47.7" height="3.47"/><rect class="cls-1" y="1591.66" width="47.7" height="3.47"/><rect class="cls-1" x="22.12" y="1569.55" width="3.47" height="47.7"/></g></g></svg>